<?xml version="1.0" encoding="UTF-8" ?>
<svg version="1.1" width="16" height="16" xmlns="http://www.w3.org/2000/svg" shape-rendering="crispEdges">
<rect x="0" y="0" width="16" height="3" fill="#FFFFFF" />
<rect x="0" y="3" width="4" height="1" fill="#FFFFFF" />
<rect x="4" y="3" width="3" height="3" fill="#000000" />
<rect x="7" y="3" width="2" height="1" fill="#FFFFFF" />
<rect x="9" y="3" width="3" height="3" fill="#000000" />
<rect x="12" y="3" width="4" height="1" fill="#FFFFFF" />
<rect x="0" y="4" width="3" height="12" fill="#FFFFFF" />
<rect x="3" y="4" width="1" height="9" fill="#000000" />
<rect x="7" y="4" width="2" height="9" fill="#000000" />
<rect x="12" y="4" width="1" height="9" fill="#000000" />
<rect x="13" y="4" width="3" height="12" fill="#FFFFFF" />
<rect x="4" y="6" width="1" height="7" fill="#000000" />
<rect x="5" y="6" width="2" height="10" fill="#FFFFFF" />
<rect x="9" y="6" width="2" height="10" fill="#FFFFFF" />
<rect x="11" y="6" width="1" height="7" fill="#000000" />
<rect x="3" y="13" width="2" height="3" fill="#FFFFFF" />
<rect x="7" y="13" width="2" height="3" fill="#FFFFFF" />
<rect x="11" y="13" width="2" height="3" fill="#FFFFFF" />
</svg>